<svg xmlns="http://www.w3.org/2000/svg"  viewBox="0 0 64 64" id="beetle">
  <path fill="#fff" d="M34.74707 12a1 1 0 010-2C42.60645 10 49 5.96289 49 1a1 1 0 012 0C51 7.06543 43.709 12 34.74707 12zM44 23a1 1 0 01-.707-1.707l2-2A.99989.99989 0 1146.707 20.707l-2 2A.99676.99676 0 0144 23z"></path>
  <path fill="#fff" d="M45.999,21a.99975.99975,0,0,1-.98535-.83594l-1-6a.99988.99988,0,0,1,1.97266-.32812l1,6a1.00012,1.00012,0,0,1-.82227,1.15039A.94941.94941,0,0,1,45.999,21Z"></path>
  <path fill="#fff" d="M44.999,15a1,1,0,0,1-.123-1.99219c3.0625-.38476,7.624-1.6709,8.17578-3.32422a.99964.99964,0,1,1,1.89648.63282c-1.14062,3.42382-8.38379,4.49609-9.82422,4.67578A1.08788,1.08788,0,0,1,44.999,15Z"></path>
  <path fill="#fff" d="M46 21a.9994.9994 0 01-.957-1.291l2-6.57324a1.0003 1.0003 0 011.91406.582l-2 6.57325A1.00122 1.00122 0 0146 21zM56 51a.99943.99943 0 01-1-1V46a1 1 0 012 0v4A.99943.99943 0 0156 51z"></path>
  <path fill="#fff" d="M55.999 47a.99656.99656 0 01-.624-.21875l-5-4a1.00049 1.00049 0 111.25-1.5625l5 4A1.00007 1.00007 0 0155.999 47zM52 34H48.918a1 1 0 010-2H52a1 1 0 010 2z"></path>
  <path fill="#fff" d="M51.001 43a1.06176 1.06176 0 01-.11133-.00586 1.00113 1.00113 0 01-.88379-1.10449l1-9a1.00025 1.00025 0 111.98828.2207l-1 9A1.00014 1.00014 0 0151.001 43zM55 64a.99676.99676 0 01-.707-.293l-2-2A.99989.99989 0 0153.707 60.293l2 2A1 1 0 0155 64z"></path>
  <path fill="#fff" d="M53.001 62a.99349.99349 0 01-.24317-.03027l-8-2a.99952.99952 0 01.48438-1.93946l8 2A.9998.9998 0 0153.001 62zM51.001 49a.999.999 0 01-.79688-.39453l-3.04394-4A1 1 0 1148.752 43.39453l3.044 4A1 1 0 0151.001 49z"></path>
  <path fill="#fff" d="M44.999 60a1.00009 1.00009 0 01-.877-1.47852l6-11a.99987.99987 0 111.75586.957l-6 11A.99943.99943 0 0144.999 60zM29.25293 12C20.291 12 13 7.06543 13 1a1 1 0 012 0c0 4.96289 6.39355 9 14.25293 9a1 1 0 010 2zM20 23a.99676.99676 0 01-.707-.293l-2-2A.99989.99989 0 0118.707 19.293l2 2A1 1 0 0120 23z"></path>
  <path fill="#fff" d="M18.001,21a.94941.94941,0,0,1-.165-.01367,1.00012,1.00012,0,0,1-.82227-1.15039l1-6a.99988.99988,0,0,1,1.97266.32812l-1,6A.99975.99975,0,0,1,18.001,21Z"></path>
  <path fill="#fff" d="M19.001,15a1.08788,1.08788,0,0,1-.125-.00781c-1.44043-.17969-8.6836-1.252-9.82422-4.67578a.99964.99964,0,0,1,1.89648-.63282C11.5,11.33691,16.06152,12.623,19.124,13.00781A1,1,0,0,1,19.001,15Z"></path>
  <path fill="#fff" d="M18 21a1.00122 1.00122 0 01-.957-.709l-2-6.57325a1.0003 1.0003 0 011.91406-.582l2 6.57324A.9994.9994 0 0118 21zM8 51a.99943.99943 0 01-1-1V46a1 1 0 012 0v4A.99943.99943 0 018 51z"></path>
  <path fill="#fff" d="M8.001 47a1.00007 1.00007 0 01-.626-1.78125l5-4a1.00049 1.00049 0 011.25 1.5625l-5 4A.99656.99656 0 018.001 47zM15.082 34H12a1 1 0 010-2h3.082a1 1 0 110 2z"></path>
  <path fill="#fff" d="M12.999 43a1.00014 1.00014 0 01-.99316-.88965l-1-9a1.00025 1.00025 0 111.98828-.2207l1 9a1.00113 1.00113 0 01-.88379 1.10449A1.07573 1.07573 0 0112.999 43zM9 64a1 1 0 01-.707-1.707l2-2A.99989.99989 0 0111.707 61.707l-2 2A.99676.99676 0 019 64z"></path>
  <path fill="#fff" d="M10.999 62a.9998.9998 0 01-.24121-1.96973l8-2a.99952.99952 0 11.48438 1.93946l-8 2A.99349.99349 0 0110.999 62zM12.999 49a1 1 0 01-.79492-1.60547l3.04395-4a1 1 0 111.59179 1.21094l-3.04394 4A.999.999 0 0112.999 49z"></path>
  <path fill="#fff" d="M19.001,60a.99943.99943,0,0,1-.87891-.52148l-6-11a.99987.99987,0,1,1,1.75586-.957l6,11A1.00009,1.00009,0,0,1,19.001,60Z"></path>
  <g>
    <path fill="#fff" d="M18 14l-1 6-2-6.57A30.25554 30.25554 0 0018 14zM49 13.43L47 20l-1-6A30.25554 30.25554 0 0049 13.43z"></path>
    <path fill="#fff" d="M31,9h2a3.00218,3.00218,0,0,1,2.75,2A3.67088,3.67088,0,0,1,36,12.34a14.67165,14.67165,0,0,0-3-.31H31a14.67165,14.67165,0,0,0-3,.31A3.67088,3.67088,0,0,1,28.25,11,3.00218,3.00218,0,0,1,31,9Z"></path>
    <path fill="#fff" d="M35,22H29l-2.06-.29-3.32-.48L22,21a5.17146,5.17146,0,0,0-2.99,1.01L19,22c0-4.65,3.82-8.55,9-9.66a14.67165,14.67165,0,0,1,3-.31h2a14.67165,14.67165,0,0,1,3,.31c5.18,1.11,9,5.01,9,9.66l-.01.01A5.17146,5.17146,0,0,0,42,21l-1.62.23-3.32.48Z"></path>
    <path fill="#fff" d="M29,22h6c0,1.66-.89,3-2,3H31C29.89,25,29,23.66,29,22Z"></path>
    <polygon fill="#fff" points="46 59 52 48 49 59.75 46 59"></polygon>
    <path fill="#fff" d="M45,35c0,14.37-5.37,26-12,26,3.32,0,6-11.63,6-26,0-6.19-.81-11.43-1.94-13.29l3.32-.48C43.01,22.43,45,28.13,45,35Z"></path>
    <path fill="#fff" d="M37.06,21.71C38.19,23.57,39,28.81,39,35c0,14.37-2.68,26-6,26H32V25h1c1.11,0,2-1.34,2-3Z"></path>
    <path fill="#fff" d="M42,21a5.17146,5.17146,0,0,1,2.99,1.01c2.6,1.83,4.52,5.98,4.93,10.99.05.65.08,1.32.08,2a38.753,38.753,0,0,1-1.04,9C46.56,53.93,40.33,61,33,61c6.63,0,12-11.63,12-26,0-6.87-1.99-12.57-4.62-13.77Z"></path>
    <path fill="#fff" d="M25,35c0,14.37,2.68,26,6,26-6.63,0-12-11.63-12-26,0-6.87,1.99-12.57,4.62-13.77l3.32.48C25.81,23.57,25,28.81,25,35Z"></path>
    <path fill="#fff" d="M31,25h1V61H31c-3.32,0-6-11.63-6-26,0-6.19.81-11.43,1.94-13.29L29,22C29,23.66,29.89,25,31,25Z"></path>
    <path fill="#fff" d="M19,35c0,14.37,5.37,26,12,26-7.33,0-13.56-7.07-15.96-17A38.753,38.753,0,0,1,14,35c0-.68.03-1.35.08-2,.41-5.01,2.33-9.16,4.93-10.99A5.17146,5.17146,0,0,1,22,21l1.62.23C20.99,22.43,19,28.13,19,35Z"></path>
    <polygon fill="#fff" points="12 48 18 59 15 59.75 12 48"></polygon>
  </g>
  <g>
    <path fill="#fff" d="M26 20a.99986.99986 0 01-.31641-1.94824l3-1a.99964.99964 0 01.63282 1.89648l-3 1A.99826.99826 0 0126 20zM22 20a1 1 0 01-.7041-1.71l2-1.98535a.9999.9999 0 011.4082 1.41992l-2 1.98535A.9952.9952 0 0122 20zM30 17a.99943.99943 0 01-1-1V15a1 1 0 012 0v1A.99943.99943 0 0130 17zM32 20.87109a.99942.99942 0 01-1-1V19a1 1 0 012 0v.87109A.99942.99942 0 0132 20.87109zM27.01953 17a1 1 0 01-.00976-2h.00976a1 1 0 110 2zM38 20a.99826.99826 0 01-.31641-.05176l-3-1a.99964.99964 0 01.63282-1.89648l3 1A.99986.99986 0 0138 20zM42 20a.9952.9952 0 01-.7041-.29l-2-1.98535a.9999.9999 0 111.4082-1.41992l2 1.98535A1 1 0 0142 20zM34 17a.99943.99943 0 01-1-1V15a1 1 0 012 0v1A.99943.99943 0 0134 17zM37.01953 17a1 1 0 01-.00976-2h.00976a1 1 0 010 2z"></path>
  </g>
</svg>
