<?xml version="1.0" encoding="UTF-8" standalone="no"?>
<!-- Created with Inkscape (http://www.inkscape.org/) -->

<svg
   width="107mm"
   height="50mm"
   viewBox="0 0 107 50"
   version="1.1"
   id="svg1"
   inkscape:version="1.4 (86a8ad7, 2024-10-11)"
   sodipodi:docname="bichilogo.svg"
   inkscape:export-filename="bichilogo-blanco.png"
   inkscape:export-xdpi="96"
   inkscape:export-ydpi="96"
   xmlns:inkscape="http://www.inkscape.org/namespaces/inkscape"
   xmlns:sodipodi="http://sodipodi.sourceforge.net/DTD/sodipodi-0.dtd"
   xmlns="http://www.w3.org/2000/svg"
   xmlns:svg="http://www.w3.org/2000/svg">
  <sodipodi:namedview
     id="namedview1"
     pagecolor="#ffffff"
     bordercolor="#000000"
     borderopacity="0.25"
     inkscape:showpageshadow="2"
     inkscape:pageopacity="0.0"
     inkscape:pagecheckerboard="false"
     inkscape:deskcolor="#d1d1d1"
     inkscape:document-units="mm"
     showguides="false"
     inkscape:zoom="2.2903402"
     inkscape:cx="164.16775"
     inkscape:cy="126.40044"
     inkscape:window-width="1920"
     inkscape:window-height="991"
     inkscape:window-x="-9"
     inkscape:window-y="1341"
     inkscape:window-maximized="1"
     inkscape:current-layer="layer1"
     showgrid="false"
     inkscape:clip-to-page="true" />
  <defs
     id="defs1">
    <clipPath
       clipPathUnits="userSpaceOnUse"
       id="clipPath1">
      <path
         id="path2"
         style="fill:#1f7e22;fill-opacity:1;fill-rule:evenodd;stroke-width:5.3984;stroke-linecap:round;stroke-linejoin:round;stroke-miterlimit:0;paint-order:markers stroke fill"
         d="m 66.574227,126.85635 c 4e-6,5.71483 -5.927664,10.34763 -13.239815,10.34763 -7.31215,0 -7.968033,-4.75373 -7.968029,-10.46857 6e-6,-5.71484 0.655885,-10.22668 7.968029,-10.22668 7.312143,0 13.239809,4.63279 13.239815,10.34762 z"
         sodipodi:nodetypes="sssss" />
    </clipPath>
    <clipPath
       clipPathUnits="userSpaceOnUse"
       id="clipPath3">
      <path
         id="path4"
         style="fill:#1f7e22;fill-opacity:1;fill-rule:evenodd;stroke-width:5.86069;stroke-linecap:round;stroke-linejoin:round;stroke-miterlimit:0;paint-order:markers stroke fill"
         d="m 64.784943,112.68526 c 0,3.28898 -4.730812,5.95524 -10.566567,5.95524 -5.835754,0 -7.759943,-3.25188 -7.759941,-6.54086 -2e-6,-3.289 1.924187,-5.36963 7.759941,-5.36963 5.835755,0 10.566567,2.66626 10.566567,5.95525 z"
         sodipodi:nodetypes="sssss" />
    </clipPath>
  </defs>
  <g
     inkscape:groupmode="layer"
     id="layer1"
     inkscape:label="Layer 1"
     style="display:inline"
     transform="matrix(0.53196442,0,0,0.53196442,2.7230557,-13.753135)">
    <g
       id="g14"
       transform="matrix(0.73335625,0,0,0.73335625,7.1918195,17.591822)">
      <rect
         style="display:inline;fill:#000000;fill-opacity:1;stroke-width:0.132947"
         id="rect1"
         width="66.307945"
         height="28.160763"
         x="1.0410359"
         y="13.978093"
         transform="matrix(1.879825,0,0,1.879825,-5.1188681,25.853487)" />
      <g
         id="g13">
        <path
           style="fill:#ffffff;fill-opacity:1;stroke-width:0.115521"
           d="m 21.544742,93.678641 c -3.822987,-0.485939 -5.662338,-2.606088 -6.118649,-7.052723 -0.155275,-1.513118 -0.15328,-5.120584 0.0036,-6.527591 0.327699,-2.938819 1.26109,-4.815378 2.865149,-5.760299 0.323573,-0.190611 0.589344,-0.375777 0.590606,-0.411481 0.0013,-0.0357 -0.15702,-0.182701 -0.351736,-0.326661 l -0.354017,-0.261744 -1.974667,0.673225 -1.974669,0.673225 -0.67486,1.663169 c -0.371174,0.914742 -0.674861,1.712063 -0.674861,1.771824 0,0.05976 0.519847,0.944086 1.155215,1.965164 1.276348,2.051177 1.384157,2.41014 0.876359,2.917939 -0.382611,0.382608 -0.820527,0.473223 -1.263994,0.261545 -0.270866,-0.129288 -0.626843,-0.596008 -1.399634,-1.835044 -1.624322,-2.60432 -1.793895,-2.903013 -1.793895,-3.159818 0,-0.308525 1.929169,-5.021402 2.163437,-5.285186 0.09702,-0.109246 1.079517,-0.498019 2.183322,-0.86394 1.197671,-0.397037 2.006917,-0.724533 2.006917,-0.812183 0,-0.10834 -0.283265,-0.146873 -1.079705,-0.146873 -0.593838,0 -1.542558,-0.0317 -2.108266,-0.07044 l -1.028559,-0.07044 -1.364365,1.485577 -1.3643654,1.485576 0.063475,2.289749 c 0.070576,2.545933 0.016666,2.815337 -0.615787,3.077308 -0.4337482,0.179666 -0.8976268,0.04161 -1.193999,-0.355351 -0.1868477,-0.250261 -0.2262301,-0.617699 -0.3025701,-2.82299 -0.059281,-1.712482 -0.048085,-2.636382 0.034496,-2.846805 0.1050946,-0.267789 2.3621045,-2.834404 3.5000225,-3.980138 l 0.374207,-0.376776 -0.431968,-0.119966 c -0.237582,-0.06598 -0.512963,-0.120255 -0.611957,-0.120609 -0.312416,-0.0011 -2.5285588,1.608144 -2.5933759,1.883192 -0.032832,0.13932 -0.1824027,0.865709 -0.3323797,1.614199 -0.1646216,0.821575 -0.3542871,1.451058 -0.4785973,1.588419 -0.4244978,0.469065 -1.2097962,0.153885 -1.2097962,-0.485551 0,-0.159811 0.1568947,-1.065208 0.348655,-2.011994 0.2720107,-1.343011 0.4053337,-1.775379 0.6064874,-1.966848 0.4459679,-0.424495 3.2144397,-2.239369 3.4157587,-2.239203 0.105707,8.7e-5 1.460838,0.338635 3.011402,0.75233 1.550564,0.413694 2.834348,0.737029 2.852855,0.718522 0.01851,-0.01851 0.08926,-0.381736 0.157221,-0.807176 0.06796,-0.42544 0.175808,-0.91092 0.239653,-1.078845 l 0.116081,-0.305317 -0.666558,0.08357 c -2.583108,0.323859 -5.249442,-0.179448 -6.4267491,-1.213137 -1.825734,-1.603016 -0.7700799,-3.609041 2.3523071,-4.470014 0.58565,-0.161488 1.183054,-0.207051 2.714754,-0.207051 1.728204,0 2.06783,0.03216 2.830273,0.26802 1.592478,0.492626 2.599557,1.39252 2.741337,2.449573 0.06283,0.468436 0.07427,0.479442 0.423322,0.407251 1.728839,-0.357555 4.71216,-0.360124 6.5306,-0.0056 2.945892,0.574293 5.30856,1.797451 6.441662,3.334857 1.540709,2.090452 0.907238,4.34597 -1.703662,6.066009 -0.578866,0.381353 -1.385949,0.812961 -1.793521,0.959132 -0.407567,0.146171 -0.741034,0.292262 -0.741034,0.324648 0,0.03239 0.415814,0.263477 0.924028,0.513537 2.856574,1.405535 5.031817,3.944303 5.703885,6.657115 0.262387,1.059141 0.246401,2.845806 -0.03532,3.947327 -0.923581,3.611168 -4.394396,6.635258 -8.903021,7.757123 -1.953144,0.485994 -3.9297,0.628703 -5.660549,0.408694 z m 8.325455,-3.987395 c 1.650114,-0.484979 3.105145,-1.618568 3.706627,-2.887771 0.688867,-1.4536 0.926653,-4.123693 0.473239,-5.313987 -0.74949,-1.967542 -3.197574,-3.974622 -4.847947,-3.974622 -0.348376,0 -0.808155,0.08292 -1.021729,0.18427 -0.561939,0.266657 -1.290021,1.108437 -1.680557,1.942994 -0.59347,1.268214 -0.706954,2.126591 -0.650404,4.919543 0.04383,2.164871 0.08322,2.585236 0.306827,3.274592 0.555141,1.711455 1.906234,2.386277 3.713944,1.854981 z m 0.02302,-17.529716 c 1.240774,-0.607473 2.392756,-2.062386 2.392756,-3.021966 0,-0.932475 -1.216506,-2.474539 -2.439228,-3.092001 -0.865299,-0.436967 -1.769783,-0.603905 -2.380707,-0.439401 -1.134667,0.305534 -1.644917,1.226186 -1.735193,3.130833 -0.09065,1.912564 0.336272,3.028862 1.359855,3.555678 0.732531,0.377017 1.870979,0.322931 2.802517,-0.133143 z"
           id="path1" />
        <path
           style="fill:#ffffff;fill-opacity:1;stroke-width:0.115521"
           d="m 37.659977,92.65977 c -0.652788,-0.287782 -1.033219,-1.058556 -1.207164,-2.445782 -0.332965,-2.655451 0.04182,-5.465466 0.911829,-6.836656 0.437866,-0.690105 0.947946,-1.00957 1.612839,-1.010134 0.439703,-2.65e-4 0.56593,0.05957 0.928862,0.441087 0.244533,0.257058 0.505047,0.703498 0.623554,1.068575 0.271232,0.835568 0.440875,2.795352 0.359275,4.150455 -0.190717,3.167198 -0.926478,4.607341 -2.399996,4.697651 -0.328985,0.02016 -0.702125,-0.0092 -0.829199,-0.0652 z"
           id="path3" />
        <path
           style="fill:#ffffff;fill-opacity:1;stroke-width:0.115521"
           d="m 44.62131,92.590838 c -1.896422,-0.479978 -3.009341,-1.772822 -3.331543,-3.870145 -0.342887,-2.231972 0.334724,-4.388694 1.813489,-5.772002 1.254926,-1.173924 2.537817,-1.635482 4.545793,-1.635482 1.738608,0 2.75306,0.37401 3.340734,1.231665 0.802024,1.170474 0.506603,2.568958 -0.650827,3.080946 -0.431302,0.190785 -0.741701,0.222982 -1.974509,0.204821 -2.222627,-0.03274 -2.192993,-0.03666 -2.569096,0.339445 -0.435713,0.435716 -0.467667,1.115616 -0.07394,1.573347 0.343435,0.399265 1.002427,0.47561 2.450732,0.283919 1.343483,-0.177815 1.928389,-0.05344 2.494283,0.530421 0.323842,0.334121 0.386427,0.492292 0.429297,1.084972 0.09397,1.299091 -0.586467,2.217867 -2.071029,2.796453 -0.818062,0.318828 -3.392524,0.407484 -4.403381,0.15164 z"
           id="path5" />
        <path
           style="fill:#ffffff;fill-opacity:1;stroke-width:0.115521"
           d="m 37.681213,81.51361 c -1.50259,-0.560911 -1.677107,-2.322777 -0.309645,-3.126087 0.591492,-0.347472 2.265588,-0.343902 2.734771,0.0058 1.061243,0.791062 1.015195,2.375927 -0.08535,2.937381 -0.606647,0.309488 -1.759275,0.399579 -2.339779,0.182877 z"
           id="path6" />
        <path
           style="fill:#ffffff;fill-opacity:1;stroke-width:0.115521"
           d="m 53.580589,92.642448 c -1.168226,-0.357219 -1.573715,-1.622938 -1.885614,-5.885868 -0.253897,-3.470151 -0.106373,-6.232533 0.396147,-7.417951 0.435893,-1.028242 1.389473,-1.701048 2.417524,-1.705704 1.771629,-0.008 2.132169,1.247279 1.508935,5.253687 l -0.07188,0.462084 0.290319,-0.411334 c 0.882087,-1.249775 2.597484,-1.868932 4.026771,-1.453428 1.851477,0.538239 2.891991,2.736699 2.905567,6.139056 0.0108,2.704322 -0.526354,4.085071 -1.795473,4.615341 -0.546955,0.228534 -1.00498,0.226335 -1.589707,-0.0076 -1.036235,-0.41462 -1.236165,-1.1528 -1.036304,-3.826296 0.161253,-2.157073 0.100846,-2.683115 -0.35555,-3.096146 -0.384601,-0.348059 -1.0033,-0.283371 -1.385969,0.14491 -0.502232,0.562097 -0.620551,1.373476 -0.455086,3.120784 0.211449,2.232914 -0.0231,3.257756 -0.878033,3.83658 -0.466638,0.315931 -1.457566,0.425799 -2.091645,0.23191 z"
           id="path7" />
        <path
           style="fill:#ffffff;fill-opacity:1;stroke-width:0.115521"
           d="m 64.913608,92.651769 c -0.387845,-0.156901 -0.83761,-0.777677 -1.031875,-1.424212 -0.256513,-0.853723 -0.348803,-3.351366 -0.177948,-4.81597 0.306131,-2.624264 1.190681,-4.04482 2.518616,-4.04482 1.433952,0 2.091944,2.167189 1.858928,6.122633 -0.133236,2.261663 -0.680264,3.630004 -1.631672,4.081478 -0.431456,0.204737 -1.137941,0.241943 -1.536049,0.08089 z"
           id="path8" />
        <path
           style="fill:#ffffff;fill-opacity:1;stroke-width:0.115521"
           d="m 70.501068,93.502537 c -1.132932,-0.593606 -2.054635,-5.322419 -2.054635,-10.541365 0,-2.989128 0.152435,-4.561372 0.776417,-8.008249 0.04816,-0.266031 -0.0066,-0.34123 -0.391937,-0.537792 -0.438653,-0.223784 -1.375085,-1.131976 -1.621872,-1.572961 -0.119092,-0.212805 -0.180573,-0.198637 -1.403194,0.323337 -2.548681,1.08811 -6.092926,2.085884 -9.546921,2.687643 -1.593977,0.277704 -2.166302,0.322791 -4.158771,0.327621 -2.127247,0.0052 -2.353027,-0.01409 -2.8477,-0.242762 -0.298058,-0.13778 -0.57074,-0.353807 -0.612441,-0.485192 -0.324223,-1.021541 2.516396,-2.703606 7.099064,-4.203692 0.09531,-0.0312 -0.190608,-0.09397 -0.635368,-0.139503 -3.791447,-0.388129 -6.153914,-1.062495 -6.800416,-1.941177 -0.233293,-0.317077 -0.233301,-0.318292 -0.0047,-0.635368 1.363908,-1.891444 11.422435,-2.732411 17.661604,-1.476641 l 1.270222,0.25566 0.579107,-0.595293 c 0.318508,-0.32741 0.709067,-0.680277 0.86791,-0.784147 0.232889,-0.152291 0.248957,-0.190028 0.08299,-0.194914 -0.396491,-0.01167 -1.647658,-0.489384 -2.194766,-0.837989 -1.423376,-0.906941 -1.488993,-2.617931 -0.135951,-3.545049 1.953236,-1.338379 5.929281,-1.537068 8.158041,-0.407669 2.521444,1.277712 1.836293,3.791903 -1.246553,4.574285 -0.718883,0.182442 -0.716206,0.179557 -0.382505,0.411949 0.155008,0.107949 0.497183,0.394141 0.760388,0.635981 0.465066,0.427319 0.492996,0.436474 0.991098,0.324847 2.144617,-0.480619 7.232943,-0.71547 10.332508,-0.476895 3.168277,0.243864 5.651344,0.770598 6.760586,1.434127 1.390276,0.83164 0.855495,1.618592 -1.579447,2.32421 -1.038553,0.300961 -3.815053,0.752897 -4.632134,0.753981 -0.259442,3.44e-4 -0.507473,0.03639 -0.55118,0.08009 -0.04371,0.04371 0.631648,0.327877 1.500788,0.631491 4.330467,1.512746 6.617436,3.33977 5.088633,4.065234 -2.058016,0.976593 -8.793284,0.100014 -14.595511,-1.899572 -0.708978,-0.244331 -1.569739,-0.56837 -1.912803,-0.72009 l -0.623755,-0.275854 -0.60274,0.67123 c -0.331507,0.369177 -0.813472,0.789666 -1.07103,0.934423 -0.424887,0.2388 -0.461635,0.295541 -0.396468,0.612219 0.508971,2.473407 0.75514,5.053861 0.75514,7.915679 0,5.315307 -0.91349,9.967302 -2.075199,10.568043 -0.247629,0.128056 -0.346355,0.126445 -0.606544,-0.0099 z"
           id="path9" />
        <path
           style="fill:#ffffff;fill-opacity:1;stroke-width:0.115521"
           d="m 64.980791,81.545437 c -1.503921,-0.45257 -1.712494,-2.355274 -0.34617,-3.157914 0.591492,-0.347472 2.265587,-0.343902 2.734768,0.0058 0.478438,0.356632 0.749734,0.89317 0.749734,1.482738 0,1.028171 -0.717183,1.650503 -2.0055,1.740263 -0.400679,0.02792 -0.910452,-0.004 -1.132832,-0.07092 z"
           id="path10" />
        <path
           style="fill:#ffffff;fill-opacity:1;stroke-width:0.115521"
           d="m 77.97695,92.681146 c -3.089535,-0.427265 -4.566404,-2.100887 -4.561388,-5.16907 0.0031,-1.929749 0.550736,-3.374908 1.731113,-4.568695 1.205723,-1.219422 2.866803,-1.843146 4.909662,-1.84354 2.326793,-5.29e-4 3.714183,0.752406 4.168507,2.262008 0.810337,2.692543 -1.580914,4.773282 -5.334068,4.641418 -1.061167,-0.03729 -1.276517,0.06049 -1.159566,0.52646 0.105003,0.418368 0.721479,0.593381 2.036323,0.578104 0.931741,-0.01082 1.287399,-0.07592 2.355395,-0.431114 1.398196,-0.465005 1.665126,-0.495784 2.145475,-0.247386 1.015973,0.525381 1.18011,1.746422 0.376981,2.804451 -0.397254,0.523336 -1.731653,1.156833 -2.860345,1.357927 -0.850132,0.151466 -2.995268,0.201848 -3.808089,0.08944 z m 1.848342,-6.720515 c 0.698201,-0.322238 1.034441,-0.745519 1.034441,-1.30221 0,-0.368451 -0.06829,-0.526579 -0.321498,-0.744376 -0.870008,-0.74835 -2.966958,0.08559 -3.156796,1.255427 -0.0557,0.34323 -0.01598,0.466283 0.229957,0.71221 0.257165,0.257162 0.395454,0.296947 1.024551,0.294754 0.458391,-0.0016 0.898094,-0.08138 1.189345,-0.215805 z"
           id="path11" />
        <path
           style="fill:#ffffff;fill-opacity:1;stroke-width:0.115521"
           d="M 89.376866,92.759103 C 86.604475,92.468492 85.0842,90.669532 85.08523,87.680751 c 7.93e-4,-1.928048 0.653237,-3.551867 1.89194,-4.707774 1.316159,-1.228187 2.737659,-1.699995 4.884555,-1.621226 1.15231,0.04228 1.364678,0.08435 1.952513,0.386826 0.817232,0.420508 1.282444,0.980043 1.417969,1.705462 0.187571,1.00402 -0.15548,1.802974 -0.942134,2.1942 -0.352906,0.175514 -0.748509,0.213601 -2.399689,0.231045 l -1.97712,0.02087 -0.278728,0.324128 c -0.446431,0.519145 -0.358007,1.545029 0.151268,1.754982 0.535093,0.220596 1.030475,0.251232 2.075611,0.128359 1.807866,-0.212542 2.498241,-0.01148 2.96001,0.862061 0.288954,0.546621 0.202285,1.552403 -0.191701,2.22469 -0.718497,1.226024 -2.755043,1.836545 -5.252858,1.574716 z"
           id="path12" />
        <path
           style="fill:#ffffff;fill-opacity:1;stroke-width:0.115521"
           d="m 97.828581,92.766228 c -1.062606,-0.226431 -1.953598,-0.915911 -2.391828,-1.850877 -0.184158,-0.392901 -0.24408,-0.747742 -0.245385,-1.453078 -0.0016,-0.838409 0.03374,-0.990592 0.347311,-1.497788 0.958786,-1.5508 3.024597,-2.138286 5.463231,-1.55366 0.5282,0.126627 1.03505,0.230233 1.12633,0.230233 0.24837,0 0.20157,-0.345276 -0.1396,-1.02991 -0.22268,-0.446868 -0.40967,-0.656687 -0.68942,-0.77357 -0.54701,-0.228555 -1.532195,-0.198448 -2.623461,0.08018 -2.148377,0.548531 -3.216569,0.181663 -3.216569,-1.10472 0,-0.623046 0.223134,-1.059437 0.815218,-1.59435 1.011267,-0.913617 2.48919,-1.36583 4.460262,-1.36474 1.74641,0.0011 2.89595,0.331346 3.95296,1.136092 1.30806,0.995879 1.94223,3.422838 1.86433,7.13473 -0.0382,1.819262 -0.0625,2.006383 -0.33002,2.541305 -0.40553,0.810815 -0.87937,1.097621 -1.8134,1.097621 -1.0351,0 -1.37255,-0.197072 -1.4719,-0.859581 -0.043,-0.28671 -0.12743,-0.55173 -0.18763,-0.588936 -0.0602,-0.0372 -0.41449,0.172014 -0.78732,0.464926 -0.37283,0.292912 -0.95739,0.63935 -1.29901,0.769861 -0.699226,0.267123 -2.095445,0.373665 -2.834099,0.216265 z m 3.805089,-2.816865 c 0.83703,-0.35428 1.03258,-1.145744 0.39937,-1.616427 -0.44936,-0.334026 -1.61564,-0.393192 -2.162441,-0.109705 -0.807149,0.418465 -0.905426,1.226318 -0.201404,1.655578 0.443515,0.27042 1.410235,0.305138 1.964475,0.07055 z"
           id="path13" />
      </g>
    </g>
    <g
       id="g44"
       transform="matrix(0.86555225,0,0,0.86555225,68.991858,-29.652804)"
       inkscape:export-filename="bichilogo.png"
       inkscape:export-xdpi="96"
       inkscape:export-ydpi="96"
       style="display:none">
      <g
         id="g11"
         transform="matrix(0.93193462,0,0,0.93193462,7.0330091,8.3789675)">
        <ellipse
           style="fill:#5b3c0f;fill-opacity:1;fill-rule:evenodd;stroke:none;stroke-width:2.7471;stroke-linecap:round;stroke-linejoin:round;stroke-miterlimit:0;stroke-opacity:1;paint-order:markers stroke fill"
           id="ellipse28"
           cx="100.20725"
           cy="126.54747"
           rx="2.614217"
           ry="11.529317" />
        <ellipse
           style="fill:#5b3c0f;fill-opacity:1;fill-rule:evenodd;stroke:none;stroke-width:2.33716;stroke-linecap:round;stroke-linejoin:round;stroke-miterlimit:0;stroke-opacity:1;paint-order:markers stroke fill"
           id="ellipse29"
           cx="100.20725"
           cy="112.81293"
           rx="4.7305202"
           ry="5.2405982" />
        <g
           id="g32"
           transform="matrix(0.8471261,0,0,0.8471261,-0.575628,15.726463)"
           style="fill:#5b3c0f;fill-opacity:1;stroke:none;stroke-opacity:1">
          <ellipse
             style="fill:#5b3c0f;fill-opacity:1;fill-rule:evenodd;stroke:none;stroke-width:2;stroke-linecap:round;stroke-linejoin:round;stroke-miterlimit:0;stroke-opacity:1;paint-order:markers stroke fill"
             id="ellipse31"
             cx="103.94184"
             cy="112.98026"
             rx="13.758485"
             ry="3.1132338" />
          <ellipse
             style="fill:#5b3c0f;fill-opacity:1;fill-rule:evenodd;stroke:none;stroke-width:2;stroke-linecap:round;stroke-linejoin:round;stroke-miterlimit:0;stroke-opacity:1;paint-order:markers stroke fill"
             id="ellipse32"
             cx="73.27597"
             cy="139.28644"
             rx="13.758485"
             ry="3.1132338"
             transform="rotate(-13.682103)" />
        </g>
        <g
           id="g34"
           transform="matrix(-0.8471261,0,0,0.8471261,200.02946,15.556315)"
           style="fill:#5b3c0f;fill-opacity:1;stroke:none;stroke-opacity:1">
          <ellipse
             style="fill:#5b3c0f;fill-opacity:1;fill-rule:evenodd;stroke:none;stroke-width:2;stroke-linecap:round;stroke-linejoin:round;stroke-miterlimit:0;stroke-opacity:1;paint-order:markers stroke fill"
             id="ellipse33"
             cx="103.94184"
             cy="112.98026"
             rx="13.758485"
             ry="3.1132338" />
          <ellipse
             style="fill:#5b3c0f;fill-opacity:1;fill-rule:evenodd;stroke:none;stroke-width:2;stroke-linecap:round;stroke-linejoin:round;stroke-miterlimit:0;stroke-opacity:1;paint-order:markers stroke fill"
             id="ellipse34"
             cx="73.27597"
             cy="139.28644"
             rx="13.758485"
             ry="3.1132338"
             transform="rotate(-13.682103)" />
        </g>
        <ellipse
           style="fill:#5b3c0f;fill-opacity:1;fill-rule:evenodd;stroke:#5b3c0f;stroke-width:2.06187;stroke-linecap:round;stroke-linejoin:round;stroke-miterlimit:0;stroke-dasharray:none;stroke-opacity:1;paint-order:markers stroke fill"
           id="ellipse11"
           cx="109.64944"
           cy="-88.217293"
           rx="2.0935805"
           ry="4.8040161"
           transform="matrix(0.10968049,0.9939669,-0.99907331,0.04304095,0,0)" />
      </g>
      <path
         d="m 68.37359,121.40066 c 0.7874,0 1.3462,0.18415 1.6764,0.55245 0.3429,0.3683 0.51435,0.79375 0.51435,1.27635 0,0.5842 -0.20955,1.0414 -0.62865,1.3716 -0.4191,0.3175 -1.0033,0.47625 -1.7526,0.47625 -0.7366,0 -1.28905,-0.1778 -1.65735,-0.5334 -0.3556,-0.3556 -0.5334,-0.7747 -0.5334,-1.2573 0,-0.6223 0.2159,-1.0922 0.6477,-1.4097 0.4445,-0.3175 1.02235,-0.47625 1.73355,-0.47625 z m 0.20955,4.24815 c 0.6223,0 1.1049,0.381 1.4478,1.143 0.3556,0.762 0.5334,1.97485 0.5334,3.63855 0,2.0447 -0.22225,3.5179 -0.66675,4.4196 -0.4318,0.9017 -1.0922,1.35255 -1.9812,1.35255 -0.6985,0 -1.21285,-0.3302 -1.54305,-0.9906 -0.3175,-0.6731 -0.47625,-1.8415 -0.47625,-3.5052 0,-2.0447 0.24765,-3.56235 0.74295,-4.55295 0.4953,-1.0033 1.143,-1.50495 1.9431,-1.50495 z m 7.522101,10.57275 c -1.8415,0 -3.19405,-0.4572 -4.05765,-1.3716 -0.8636,-0.9144 -1.2954,-2.1844 -1.2954,-3.81 0,-1.2573 0.254,-2.36855 0.762,-3.33375 0.5207,-0.9779 1.26365,-1.7399 2.22885,-2.286 0.9779,-0.5588 2.1463,-0.8382 3.5052,-0.8382 1.2446,0 2.1971,0.2413 2.8575,0.7239 0.6604,0.4826 0.9906,1.1557 0.9906,2.0193 0,0.6096 -0.2032,1.0922 -0.6096,1.4478 -0.3937,0.3429 -0.9652,0.51435 -1.7145,0.51435 -0.2921,0 -0.5715,-0.006 -0.8382,-0.019 -0.2667,-0.0254 -0.51435,-0.0445 -0.74295,-0.0572 -0.2286,-0.0127 -0.4445,-0.019 -0.6477,-0.019 -0.4699,0 -0.83185,0.1016 -1.08585,0.3048 -0.2413,0.2032 -0.36195,0.508 -0.36195,0.9144 0,0.3683 0.127,0.64135 0.381,0.81915 0.254,0.1778 0.5969,0.2667 1.0287,0.2667 0.1905,0 0.4064,-0.0191 0.6477,-0.0572 0.254,-0.0508 0.5207,-0.0952 0.8001,-0.13335 0.2794,-0.0381 0.55245,-0.0572 0.81915,-0.0572 0.5842,0 1.0668,0.1651 1.4478,0.4953 0.381,0.3175 0.5715,0.7874 0.5715,1.4097 0,0.6223 -0.17145,1.1684 -0.51435,1.6383 -0.3429,0.4572 -0.8636,0.8128 -1.5621,1.0668 -0.6858,0.2413 -1.55575,0.36195 -2.60985,0.36195 z m 7.998348,-15.29715 c 0.7112,0 1.20015,0.19685 1.46685,0.59055 0.2794,0.3937 0.4191,0.9779 0.4191,1.7526 0,0.5334 -0.0381,1.1176 -0.1143,1.7526 -0.318283,2.72291 -0.880676,1.49303 1.0668,0.1905 0.6096,-0.381 1.2573,-0.5715 1.9431,-0.5715 0.6858,0 1.2954,0.17145 1.8288,0.51435 0.5334,0.3302 0.97155,0.84455 1.31445,1.54305 0.2921,0.5715 0.50165,1.2573 0.62865,2.0574 0.1397,0.8001 0.20955,1.55575 0.20955,2.26695 0,1.1811 -0.1143,2.1209 -0.3429,2.8194 -0.2159,0.6985 -0.52705,1.2065 -0.93345,1.524 -0.3937,0.3048 -0.85725,0.4572 -1.39065,0.4572 -1.3335,0 -2.00025,-0.79375 -2.00025,-2.38125 0,-0.5715 0.03175,-1.1557 0.09525,-1.7526 0.0762,-0.5969 0.1143,-1.143 0.1143,-1.6383 0,-0.5207 -0.0889,-0.90805 -0.2667,-1.16205 -0.1778,-0.2667 -0.42545,-0.40005 -0.74295,-0.40005 -0.381,0 -0.69215,0.18415 -0.93345,0.55245 -0.2286,0.3683 -0.3429,0.8763 -0.3429,1.524 0,0.4318 0.0254,0.86995 0.0762,1.31445 0.0635,0.4318 0.09525,0.9525 0.09525,1.5621 0,0.9779 -0.20955,1.68275 -0.62865,2.11455 -0.4064,0.4191 -0.9271,0.62865 -1.5621,0.62865 -0.4191,0 -0.8001,-0.0635 -1.143,-0.1905 -0.3302,-0.127 -0.6096,-0.381 -0.8382,-0.762 -0.2286,-0.3937 -0.4064,-0.97155 -0.5334,-1.73355 -0.0762,-0.4572 -0.14605,-0.9906 -0.20955,-1.6002 -0.0508,-0.6096 -0.1016,-1.2446 -0.1524,-1.905 -0.0381,-0.6731 -0.06985,-1.3208 -0.09525,-1.9431 -0.0254,-0.635 -0.0381,-1.1938 -0.0381,-1.6764 0,-1.8923 0.254,-3.27025 0.762,-4.13385 0.5207,-0.8763 1.27,-1.31445 2.2479,-1.31445 z m 11.522622,0.47625 c 0.7874,0 1.3462,0.18415 1.6764,0.55245 0.3429,0.3683 0.51435,0.79375 0.51435,1.27635 0,0.5842 -0.20955,1.0414 -0.62865,1.3716 -0.4191,0.3175 -1.0033,0.47625 -1.7526,0.47625 -0.7366,0 -1.28905,-0.1778 -1.65735,-0.5334 -0.3556,-0.3556 -0.5334,-0.7747 -0.5334,-1.2573 0,-0.6223 0.2159,-1.0922 0.6477,-1.4097 0.4445,-0.3175 1.02235,-0.47625 1.73355,-0.47625 z m 0.20955,4.24815 c 0.6223,0 1.1049,0.381 1.4478,1.143 0.3556,0.762 0.5334,1.97485 0.5334,3.63855 0,2.0447 -0.22225,3.5179 -0.66675,4.4196 -0.4318,0.9017 -1.0922,1.35255 -1.9812,1.35255 -0.6985,0 -1.21285,-0.3302 -1.54305,-0.9906 -0.3175,-0.6731 -0.47625,-1.8415 -0.47625,-3.5052 0,-2.0447 0.24765,-3.56235 0.74295,-4.55295 0.4953,-1.0033 1.143,-1.50495 1.9431,-1.50495 z"
         id="text34"
         style="font-weight:bold;font-size:19.05px;line-height:14.2968px;font-family:DynaPuff;-inkscape-font-specification:'DynaPuff Bold';letter-spacing:-0.478896px;word-spacing:0px;fill:#1f7e22;fill-rule:evenodd;stroke-width:1.9;stroke-linecap:round;stroke-linejoin:round;stroke-miterlimit:0;paint-order:markers stroke fill"
         aria-label="ichi"
         sodipodi:nodetypes="scscscscsscscscscscssccssscsccscssscsscsccccscsccscccsccsscscscscscsccscccscsscscscscsscscscscs" />
      <path
         d="m 109.29374,136.19551 c -1.5621,0 -2.8067,-0.20955 -3.7338,-0.62865 -0.9271,-0.4191 -1.6002,-1.02235 -2.0193,-1.80975 -0.4064,-0.7874 -0.6096,-1.7272 -0.6096,-2.8194 0,-1.3843 0.28575,-2.55905 0.85725,-3.52425 0.5842,-0.9779 1.37795,-1.7272 2.38125,-2.2479 1.016,-0.5207 2.16535,-0.78105 3.44805,-0.78105 1.524,0 2.6416,0.3048 3.3528,0.9144 0.7112,0.5969 1.0668,1.3843 1.0668,2.3622 0,0.7747 -0.2159,1.4478 -0.6477,2.0193 -0.4191,0.5715 -1.09725,1.02134 -1.77165,1.31445 -0.81029,0.35217 -1.69574,0.40758 -2.60985,0.4572 -0.54786,0.0297 -2.23239,-0.42862 -1.5049,0.6668 0.4064,0.2286 0.9652,0.3429 1.6764,0.3429 0.6858,0 1.27,-0.0699 1.7526,-0.20955 0.4826,-0.1524 0.90805,-0.29845 1.27635,-0.43815 0.3683,-0.1524 0.71755,-0.2286 1.04775,-0.2286 0.2286,0 0.46355,0.0571 0.70485,0.17145 0.2413,0.1143 0.4445,0.2921 0.6096,0.5334 0.1651,0.2413 0.24765,0.56515 0.24765,0.97155 0,0.5588 -0.20955,1.06045 -0.62865,1.50495 -0.4191,0.4445 -1.0414,0.79375 -1.8669,1.04775 -0.8128,0.254 -1.82245,0.381 -3.02895,0.381 z m -1.1049,-6.64845 c 0.6096,0 1.13665,-0.14605 1.58115,-0.43815 0.4445,-0.3048 0.66675,-0.6731 0.66675,-1.1049 0,-0.2794 -0.1016,-0.508 -0.3048,-0.6858 -0.2032,-0.1778 -0.4826,-0.2667 -0.8382,-0.2667 -0.3937,0 -0.76835,0.0762 -1.12395,0.2286 -0.3429,0.1524 -0.6223,0.34925 -0.8382,0.59055 -0.2159,0.2413 -0.32385,0.508 -0.32385,0.8001 0,0.2794 0.1016,0.4953 0.3048,0.6477 0.2159,0.1524 0.508,0.2286 0.8763,0.2286 z m 11.78928,6.7056 c -1.8415,0 -3.19405,-0.4572 -4.05765,-1.3716 -0.8636,-0.9144 -1.2954,-2.1844 -1.2954,-3.81 0,-1.2573 0.254,-2.36855 0.762,-3.33375 0.5207,-0.9779 1.26365,-1.7399 2.22885,-2.286 0.9779,-0.5588 2.1463,-0.8382 3.5052,-0.8382 1.2446,0 2.1971,0.2413 2.8575,0.7239 0.6604,0.4826 0.9906,1.1557 0.9906,2.0193 0,0.6096 -0.2032,1.0922 -0.6096,1.4478 -0.3937,0.3429 -0.9652,0.51435 -1.7145,0.51435 -0.2921,0 -0.5715,-0.006 -0.8382,-0.019 -0.2667,-0.0254 -0.51435,-0.0445 -0.74295,-0.0572 -0.2286,-0.0127 -0.4445,-0.019 -0.6477,-0.019 -0.4699,0 -0.83185,0.1016 -1.08585,0.3048 -0.2413,0.2032 -0.36195,0.508 -0.36195,0.9144 0,0.3683 0.127,0.64135 0.381,0.81915 0.254,0.1778 0.5969,0.2667 1.0287,0.2667 0.1905,0 0.4064,-0.019 0.6477,-0.0571 0.254,-0.0508 0.5207,-0.0953 0.8001,-0.13335 0.2794,-0.0381 0.55245,-0.0572 0.81915,-0.0572 0.5842,0 1.0668,0.1651 1.4478,0.4953 0.381,0.3175 0.5715,0.7874 0.5715,1.4097 0,0.6223 -0.17145,1.1684 -0.51435,1.6383 -0.3429,0.4572 -0.8636,0.8128 -1.5621,1.0668 -0.6858,0.2413 -1.55575,0.36195 -2.60985,0.36195 z m 14.0372,-0.019 c -0.7366,0 -1.22555,-0.1651 -1.46685,-0.4953 -0.30657,-2.62146 -0.28502,0.4915 -3.94335,0.5525 -0.88888,0.0148 -1.6256,-0.1524 -2.2098,-0.4572 -0.5715,-0.3175 -1.0033,-0.73025 -1.2954,-1.23825 -0.2794,-0.508 -0.4191,-1.07315 -0.4191,-1.69545 0,-1.0541 0.38735,-1.88595 1.16205,-2.49555 0.7874,-0.6223 1.8288,-0.93345 3.1242,-0.93345 0.7874,0 1.45657,0.18801 2.07645,0.36195 1.03816,0.29131 0.9821,0.11685 0.3429,-1.143 -0.25244,-0.49756 -0.90805,-0.62865 -1.61925,-0.62865 -0.3048,0 -0.635,0.0508 -0.9906,0.1524 -0.3429,0.0889 -0.6985,0.18415 -1.0668,0.28575 -0.3683,0.0889 -0.74295,0.13335 -1.12395,0.13335 -0.508,0 -0.90805,-0.13335 -1.20015,-0.40005 -0.2794,-0.2794 -0.4191,-0.635 -0.4191,-1.0668 0,-0.5842 0.24765,-1.1049 0.74295,-1.5621 0.4953,-0.4572 1.14935,-0.81915 1.96215,-1.08585 0.8255,-0.2667 1.7145,-0.40005 2.667,-0.40005 1.2446,0 2.3241,0.23495 3.2385,0.70485 0.9144,0.4572 1.55575,1.1684 1.92405,2.1336 0.2794,0.6985 0.47625,1.4859 0.59055,2.3622 0.127,0.8763 0.1905,1.80975 0.1905,2.80035 0,1.0795 -0.0762,1.9177 -0.2286,2.5146 -0.1524,0.5969 -0.40005,1.016 -0.74295,1.2573 -0.3302,0.2286 -0.762,0.3429 -1.2954,0.3429 z m -3.7338,-2.7813 c 0.254,0 0.508,-0.0381 0.762,-0.1143 0.2667,-0.0889 0.48895,-0.20955 0.66675,-0.36195 0.1778,-0.1651 0.2667,-0.36195 0.2667,-0.59055 0,-0.2286 -0.0699,-0.41275 -0.20955,-0.55245 -0.1397,-0.1397 -0.3302,-0.2413 -0.5715,-0.3048 -0.2286,-0.0635 -0.47625,-0.0952 -0.74295,-0.0952 -0.4826,0 -0.86995,0.1016 -1.16205,0.3048 -0.2921,0.2032 -0.43815,0.4572 -0.43815,0.762 0,0.2794 0.127,0.508 0.381,0.6858 0.2667,0.1778 0.61595,0.2667 1.04775,0.2667 z"
         id="text35"
         style="font-weight:bold;font-size:19.05px;line-height:14.2968px;font-family:DynaPuff;-inkscape-font-specification:'DynaPuff Bold';letter-spacing:-0.574146px;word-spacing:0px;fill:#5b3c0f;fill-rule:evenodd;stroke-width:1.9;stroke-linecap:round;stroke-linejoin:round;stroke-miterlimit:0;paint-order:markers stroke fill"
         aria-label="eca"
         sodipodi:nodetypes="cscsccscscsscsccssssscccscssscsscscssccssscsccscssscsscsccccccsccscssssccscsscscccssccccccsscsssccc" />
      <g
         id="g43"
         transform="translate(-0.52916667)">
        <path
           id="path37"
           style="fill:#1f7e22;fill-opacity:1;fill-rule:evenodd;stroke-width:5.86072;stroke-linecap:round;stroke-linejoin:round;stroke-miterlimit:0;paint-order:markers stroke fill"
           d="m 54.218495,106.7302 c -5.835748,0 -7.760251,2.08019 -7.76025,5.36918 -10e-7,3.28898 1.924502,6.54121 7.76025,6.54121 5.835748,0 10.566281,-2.66622 10.56628,-5.9552 10e-7,-3.28898 -4.730532,-5.95519 -10.56628,-5.95519 z m 3.922758,2.22726 c 2.12035,0 4.214727,2.21603 4.21473,3.52433 6e-6,1.30831 -1.834441,3.40858 -3.954797,3.40858 -2.120356,0 -2.528016,-1.93698 -2.528011,-3.24528 3e-6,-1.3083 0.147728,-3.68763 2.268078,-3.68763 z" />
        <path
           id="path38"
           style="fill:#1f7e22;fill-opacity:1;fill-rule:evenodd;stroke-width:5.39841;stroke-linecap:round;stroke-linejoin:round;stroke-miterlimit:0;paint-order:markers stroke fill"
           d="m 53.334312,116.50893 c -7.312137,0 -7.967985,4.51142 -7.96799,10.22625 -4e-6,5.71484 0.655846,10.46861 7.96799,10.46861 7.312144,0 13.240023,-4.63286 13.240018,-10.34769 -6e-6,-5.71482 -5.927882,-10.34717 -13.240018,-10.34717 z m 5.906099,4.37648 c 1.759442,0 5.149558,2.53475 5.149556,5.37693 -10e-7,1.26145 -0.146963,3.28959 -1.106909,4.57698 -1.202913,1.61323 -3.352974,2.36007 -4.331518,2.36007 -3.338003,0 -2.954857,-4.15224 -2.954859,-6.99441 -2e-6,-2.84218 1.484288,-5.31957 3.24373,-5.31957 z" />
        <path
           style="fill:#1f7e22;fill-opacity:1;fill-rule:evenodd;stroke-linecap:round;stroke-linejoin:round;stroke-miterlimit:0;paint-order:markers stroke fill"
           d="m 42.302734,112.27539 a 1.10011,1.10011 0 0 0 -0.84375,0.35547 l -3.357422,3.66406 a 1.10011,1.10011 0 0 0 -0.289062,0.77735 l 0.152344,4.73828 a 1.1,1.1 0 0 0 1.134765,1.06445 1.1,1.1 0 0 0 1.064453,-1.13477 l -0.138671,-4.28906 2.714843,-2.96094 7.125,0.21094 a 1.1,1.1 0 0 0 1.132813,-1.0664 1.1,1.1 0 0 0 -1.066406,-1.13282 z"
           id="path39" />
        <path
           style="fill:#1f7e22;fill-rule:evenodd;stroke-linecap:round;stroke-linejoin:round;stroke-miterlimit:0;paint-order:markers stroke fill"
           d="m 51.601562,113.20898 -8.43164,2.81055 a 1.1733324,1.1733324 0 0 0 -0.714844,0.66797 l -1.837891,4.48633 a 1.1733324,1.1733324 0 0 0 0.0918,1.06836 l 2.525391,4.02929 a 1.173215,1.173215 0 0 0 1.617187,0.3711 1.173215,1.173215 0 0 0 0.371094,-1.61719 l -2.205078,-3.51953 1.404297,-3.42969 7.921875,-2.64062 a 1.173215,1.173215 0 0 0 0.742187,-1.48438 1.173215,1.173215 0 0 0 -1.484375,-0.74219 z"
           id="path40" />
        <path
           style="fill:#1f7e22;fill-opacity:1;fill-rule:evenodd;stroke-linecap:round;stroke-linejoin:round;stroke-miterlimit:0;paint-order:markers stroke fill"
           d="m 40.822838,110.44336 a 0.80933593,0.80933593 0 0 0 -0.664063,0.11133 l -3.023437,2.05664 a 0.80933593,0.80933593 0 0 0 -0.337891,0.50976 l -0.689453,3.41797 a 0.809255,0.809255 0 0 0 0.634766,0.95313 0.809255,0.809255 0 0 0 0.953125,-0.63281 l 0.623046,-3.09571 2.44336,-1.66211 5.066406,1.35352 a 0.809255,0.809255 0 0 0 0.990234,-0.57227 0.809255,0.809255 0 0 0 -0.572265,-0.99218 z"
           id="path41" />
        <ellipse
           style="fill:#1f7e22;fill-opacity:1;fill-rule:evenodd;stroke:#1f7e22;stroke-width:2.06187;stroke-linecap:round;stroke-linejoin:round;stroke-miterlimit:0;stroke-dasharray:none;stroke-opacity:1;paint-order:markers stroke fill"
           id="ellipse41"
           cx="108.97977"
           cy="-32.813671"
           rx="2.0935805"
           ry="4.8040161"
           transform="matrix(0.10968049,0.9939669,-0.99907331,0.04304095,0,0)" />
      </g>
    </g>
  </g>
</svg>
