<svg xmlns="http://www.w3.org/2000/svg" viewBox="0 0 512 512" id="mosquito">
  <path fill="#8b8891" d="M120.99023 513.002a7.50128 7.50128 0 0 1-2.19824-14.67187c14.44239-4.43311 41.43457-16.04053 59.9502-43.97363A106.16712 106.16712 0 0 0 195.11914 411.937l-14.36426-79.00488a7.49387 7.49387 0 0 1 .51075-4.35449A206.37545 206.37545 0 0 1 233.16992 257.208a7.50009 7.50009 0 0 1 9.96485 11.21191 191.38586 191.38586 0 0 0-47.208 64.10791l14.1748 77.95947a7.4858 7.4858 0 0 1 .041 2.43409 121.19884 121.19884 0 0 1-18.89844 49.72216c-21.0957 31.82813-51.69043 45.00489-68.0498 50.02637A7.50018 7.50018 0 0 1 120.99023 513.002zM391.50293 513.002a7.50016 7.50016 0 0 1-2.2041-.332c-16.35938-5.02246-46.95508-18.19971-68.04981-50.02637a121.1793 121.1793 0 0 1-18.89746-49.72265 7.47959 7.47959 0 0 1 .041-2.43311l14.17383-77.96a191.38623 191.38623 0 0 0-47.208-64.10791 7.50008 7.50008 0 0 1 9.96484-11.21191 206.39679 206.39679 0 0 1 51.9043 71.36963 7.49271 7.49271 0 0 1 .51074 4.354L317.375 411.9375a106.15436 106.15436 0 0 0 16.376 42.41895c18.51465 27.93212 45.50781 39.54 59.95019 43.97363a7.50125 7.50125 0 0 1-2.19824 14.67187z"></path>
  <path fill="#8b8891" d="M494.50977 457.001a7.55006 7.55006 0 0 1-1.00586-.06739A209.24374 209.24374 0 0 1 352.918 373.79639a7.49166 7.49166 0 0 1-1.37109-3.26709L339.00586 292.29a191.39924 191.39924 0 0 0-65.8291-44.7749 7.49974 7.49974 0 1 1 5.67187-13.88575 206.398 206.398 0 0 1 72.67285 50.0625 7.50014 7.50014 0 0 1 1.92872 3.937l12.61621 78.70849a194.23776 194.23776 0 0 0 129.42968 75.729 7.50055 7.50055 0 0 1-.98632 14.93457zM280.07422 190.81836a7.501 7.501 0 0 1-2.77734-14.46924c7.499-3.1875 50.65332-41.1084 57.167-50.05371l13.27441-68.41309A7.498 7.498 0 0 1 350.541 53.356l66.69238-51.061a7.50018 7.50018 0 1 1 9.11914 11.91016L361.9209 63.53516 348.916 130.55762a7.49667 7.49667 0 0 1-.79883 2.20019c-5.43164 9.82422-54.84082 53.37158-65.26953 57.52588A7.47693 7.47693 0 0 1 280.07422 190.81836zM17.49023 457.001a7.50057 7.50057 0 0 1-.96777-14.937 192.55056 192.55056 0 0 0 72.87793-25.05078 195.278 195.278 0 0 0 56.65137-50.602l12.62695-78.77978a7.50009 7.50009 0 0 1 1.92871-3.937 206.54718 206.54718 0 0 1 72.7334-50.10352 7.49973 7.49973 0 1 1 5.67188 13.88574 191.565 191.565 0 0 0-65.88965 44.81592l-12.55176 78.30811a7.50677 7.50677 0 0 1-1.36719 3.26171 207.44138 207.44138 0 0 1-62.20117 56.08155A207.45575 207.45575 0 0 1 18.47754 456.936 7.60174 7.60174 0 0 1 17.49023 457.001zM232.10645 190.75488a7.46386 7.46386 0 0 1-3.87989-1.08691c-12.28613-7.44531-53.80664-44.02734-63.46875-55.918a7.49688 7.49688 0 0 1-1.541-3.30078l-13.01563-67.082L85.71289 13.99365A7.50017 7.50017 0 1 1 94.832 2.0835l66.749 51.10449a7.498 7.498 0 0 1 2.80274 4.52637l13.18359 67.94921C188.13477 137.63574 225.53906 170.5 236 176.83984a7.50058 7.50058 0 0 1-3.89355 13.915z"></path>
  <path fill="#afaeb3" d="M254.24,200.25v30c0,2.87-21.65991,3.55-39.45,3.64-2.73.01-5.37.01-7.82,0-7.37994-.02-13.1-.12-14.66-.13-34.49-.24-69.89-2.96-102.08-18.95a63.00746,63.00746,0,0,1-14.83-9.84,33.709,33.709,0,0,1-10.05-15.98c-2.91-10.6.43-23.19,7.93-29.9,11.09-9.93,24.74-2.43,36.68994.9q48.46509,13.515,96.92,27.05,3.9,1.08,7.8,2.18Q234.475,194.725,254.24,200.25Z"></path>
  <path fill="#8b8891" d="M222.30908,233.76184c-34.48657-.2428-69.88617-2.96283-102.07672-18.95618a63.06232,63.06232,0,0,1-14.837-9.83691,33.83138,33.83138,0,0,1-10.05-15.97821c-2.90393-10.60443.43524-23.1955,7.93011-29.90192q.51352-.4595,1.03424-.8692c-10.45672-3.46808-21.65912-7.51965-31.03424.8692-7.49487,6.70642-10.834,19.29749-7.93011,29.90192a33.83138,33.83138,0,0,0,10.05,15.97821,63.06232,63.06232,0,0,0,14.837,9.83691c32.19055,15.99335,67.59015,18.71338,102.07672,18.95618,2.65949.01874,17.43775.288,31.88983.02161C223.34235,233.77258,222.69446,233.76453,222.30908,233.76184Z"></path>
  <path fill="#afaeb3" d="M446.65,188.99a33.70949,33.70949,0,0,1-10.05,15.98,63.00991,63.00991,0,0,1-14.83,9.84c-32.18994,15.99-67.59009,18.71-102.08008,18.95-1.29993.01-5.5.08-11.12988.12-2.90015.02-6.18006.03-9.65015.01-18.07983-.05-41.1499-.68-41.1499-3.64v-30q20.415-5.7,40.84-11.4,4.935-1.365,9.86-2.75,46.78509-13.065,93.57007-26.11c11.95-3.33,25.6-10.83,36.68994-.9C446.22,165.8,449.56006,178.39,446.65,188.99Z"></path>
  <path fill="#8b8891" d="M279.35 315.25c0 .96-.00989 1.91-.0199 2.86-.05 5.06-.24 10-.57007 14.78-.48 7.06-1.24 13.76-2.24 19.96-.86011 5.35-1.9 10.33-3.09009 14.84-4.30993 16.29-10.58984 26.56-17.58 26.56s-13.2699-10.27-17.58-26.56c-1.2-4.53-2.24-9.53-3.1001-14.91-1-6.16-1.75-12.81-2.23-19.82-.32995-4.84-.52-9.84-.56994-14.97-.02-.91-.02-1.82-.02-2.74 0-5.88.19006-11.61.55993-17.12.33008-5.18.83008-10.17 1.46009-14.91 3.65-27.67 11.89-46.97 21.48-46.97s17.83 19.3 21.4801 46.97c.63989 4.75 1.12988 9.74 1.47 14.93C279.15991 303.65 279.35 309.38 279.35 315.25zM300.7 212.25a128.75021 128.75021 0 0 1-1.79 21.64c-18.07983-.05-41.1499-.68-41.1499-3.64v-30q20.415-5.7 40.84-11.4A127.83934 127.83934 0 0 1 300.7 212.25zM254.24 200.25v30c0 2.87-21.65991 3.55-39.45 3.64a130.89329 130.89329 0 0 1-.1-44.67Q234.475 194.725 254.24 200.25z"></path>
  <ellipse cx="257.763" cy="210.25" fill="#58565d" rx="32.94" ry="66.533"></ellipse>
  <path fill="#3c3b41" d="M242.90967,210.25c0-29.70184,9.63794-54.8493,22.94018-63.40167a18.362,18.362,0,0,0-10-3.131c-18.19238,0-32.94018,29.78765-32.94018,66.53265s14.7478,66.53259,32.94018,66.53259a18.362,18.362,0,0,0,10-3.131C252.54761,265.09924,242.90967,239.95178,242.90967,210.25Z"></path>
  <path fill="#8b8891" d="M255.84961,134.75a7.49974,7.49974,0,0,1-7.5-7.5v-81a7.5,7.5,0,1,1,15,0v81A7.49974,7.49974,0,0,1,255.84961,134.75Z"></path>
  <path fill="#8b8891" d="M255.8457,134.752a7.504,7.504,0,0,1-6.876-10.48828,144.1414,144.1414,0,0,1,46.33593-58.54248,7.50045,7.50045,0,0,1,8.95313,12.03613,129.13334,129.13334,0,0,0-41.5293,52.479A7.50283,7.50283,0,0,1,255.8457,134.752Z"></path>
  <path fill="#8b8891" d="M255.85156,134.752a7.50162,7.50162,0,0,1-7-4.80468,100.787,100.787,0,0,0-44.34668-51.69141,7.50011,7.50011,0,1,1,7.42578-13.0332,115.79325,115.79325,0,0,1,50.917,59.33007,7.50476,7.50476,0,0,1-6.9961,10.19922Z"></path>
  <ellipse cx="256.35" cy="134.25" fill="#e5303e" rx="30" ry="22"></ellipse>
  <path fill="#b72732" d="M246.34985,134.25c0-9.57819,8.34937-17.72253,20-20.74323a39.88312,39.88312,0,0,0-10-1.25677c-16.5686,0-30.00006,9.84973-30.00006,22s13.43146,22,30.00006,22a39.88312,39.88312,0,0,0,10-1.25677C254.69922,151.97253,246.34985,143.82819,246.34985,134.25Z"></path>
  <path fill="#58565d" d="M278.80005 298.15a5.983 5.983 0 0 1-.95007.07H234.02a6.74377 6.74377 0 0 1-1.11011-.09c.33008-5.18.83008-10.17 1.46009-14.91h42.96008C277.97 287.97 278.46 292.96 278.80005 298.15zM279.33008 318.11c-.05 5.06-.24 10-.57007 14.78a5.98857 5.98857 0 0 1-.95.07H232.93994c-.32995-4.84-.52-9.84-.56994-14.97a6.07309 6.07309 0 0 1 .61-.03h44.83008A7.60935 7.60935 0 0 1 279.33008 318.11zM276.52 352.85c-.86011 5.35-1.9 10.33-3.09009 14.84H238.27c-1.2-4.53-2.24-9.53-3.1001-14.91a7.11313 7.11313 0 0 1 1.14014-.09H274.98A7.12343 7.12343 0 0 1 276.52 352.85z"></path>
</svg>
